<svg xmlns="http://www.w3.org/2000/svg" viewBox="0 0 64 64" shape-rendering="crispEdges">
	<rect x="12" y="0" width="8" height="4" fill="#8cae73" />
	<rect x="44" y="0" width="8" height="4" fill="#8cae73" />
	<rect x="12" y="4" width="8" height="4" fill="#8cae73" />
	<rect x="44" y="4" width="8" height="4" fill="#8cae73" />
	<rect x="12" y="8" width="8" height="4" fill="#8cae73" />
	<rect x="44" y="8" width="8" height="4" fill="#8cae73" />
	<rect x="8" y="12" width="12" height="4" fill="#8cae73" />
	<rect x="44" y="12" width="12" height="4" fill="#8cae73" />
	<rect x="16" y="16" width="32" height="4" fill="#8cae73" />
	<rect x="12" y="20" width="4" height="4" fill="#8cae73" />
	<rect x="16" y="20" width="32" height="4" fill="#ffffff" />
	<rect x="48" y="20" width="4" height="4" fill="#8cae73" />
	<rect x="8" y="24" width="4" height="4" fill="#8cae73" />
	<rect x="12" y="24" width="40" height="4" fill="#ffffff" />
	<rect x="52" y="24" width="4" height="4" fill="#8cae73" />
	<rect x="8" y="28" width="4" height="4" fill="#8cae73" />
	<rect x="12" y="28" width="8" height="4" fill="#ffffff" />
	<rect x="20" y="28" width="4" height="4" fill="#3f3f46" />
	<rect x="24" y="28" width="16" height="4" fill="#ffffff" />
	<rect x="40" y="28" width="4" height="4" fill="#3f3f46" />
	<rect x="44" y="28" width="8" height="4" fill="#ffffff" />
	<rect x="52" y="28" width="4" height="4" fill="#8cae73" />
	<rect x="8" y="32" width="4" height="4" fill="#8cae73" />
	<rect x="12" y="32" width="40" height="4" fill="#ffffff" />
	<rect x="52" y="32" width="4" height="4" fill="#8cae73" />
	<rect x="8" y="36" width="4" height="4" fill="#8cae73" />
	<rect x="12" y="36" width="16" height="4" fill="#ffffff" />
	<rect x="28" y="36" width="8" height="4" fill="#3f3f46" />
	<rect x="36" y="36" width="16" height="4" fill="#ffffff" />
	<rect x="52" y="36" width="4" height="4" fill="#8cae73" />
	<rect x="8" y="40" width="4" height="4" fill="#8cae73" />
	<rect x="12" y="40" width="40" height="4" fill="#ffffff" />
	<rect x="52" y="40" width="4" height="4" fill="#8cae73" />
	<rect x="12" y="44" width="4" height="4" fill="#8cae73" />
	<rect x="16" y="44" width="32" height="4" fill="#ffffff" />
	<rect x="48" y="44" width="4" height="4" fill="#8cae73" />
	<rect x="16" y="48" width="32" height="4" fill="#8cae73" />
</svg>
